<?xml version="1.0" encoding="utf-8"?>
<!-- Generator: Adobe Illustrator 18.1.1, SVG Export Plug-In . SVG Version: 6.00 Build 0)  -->
<!DOCTYPE svg PUBLIC "-//W3C//DTD SVG 1.1//EN" "http://www.w3.org/Graphics/SVG/1.1/DTD/svg11.dtd">
<svg version="1.1" id="Layer_1" xmlns="http://www.w3.org/2000/svg" xmlns:xlink="http://www.w3.org/1999/xlink" x="0px" y="0px"
	 viewBox="-26.3 -2.9 177.9 20" enable-background="new -26.3 -2.9 177.9 20" xml:space="preserve">
<g>
	<g>
		<g>
			<path fill="#2E2D2D" d="M75.6,11.8h-6.8l-1.6,5h-3.6l6.8-19.4h3.7l6.8,19.4h-3.6L75.6,11.8z M72.2,0.7c0,0-0.4,1.9-0.8,3
				l-1.7,5.2h5.1L73,3.7C72.7,2.6,72.3,0.7,72.2,0.7L72.2,0.7z"/>
		</g>
		<g>
			<path fill="#2E2D2D" d="M86.1-2.6h6.2c2.1,0,3.1,0.2,3.9,0.5c1.9,0.9,3.2,2.7,3.2,5.3c0,2.3-1.2,4.5-3.3,5.3v0.1
				c0,0,0.3,0.3,0.7,1l4,7.2h-3.9L93,9.5h-3.4v7.2h-3.5L86.1-2.6L86.1-2.6z M92.8,6.5c1.9,0,3.1-1.1,3.1-3.1c0-1.9-0.8-3-3.5-3h-2.7
				v6.1L92.8,6.5L92.8,6.5z"/>
		</g>
		<g>
			<path fill="#2E2D2D" d="M106.8-2.6h6.6c6,0,9.9,3.5,9.9,9.6c0,6.1-3.9,9.7-9.9,9.7h-6.6V-2.6z M113.2,13.7c3.9,0,6.4-2.3,6.4-6.7
				c0-4.3-2.6-6.6-6.4-6.6h-2.9v13.3H113.2z"/>
		</g>
		<g>
			<path fill="#2E2D2D" d="M129.5,11.8c0,0,2.1,2,4.8,2c1.5,0,2.8-0.8,2.8-2.3c0-3.5-9.1-2.9-9.1-8.8c0-3.2,2.8-5.6,6.5-5.6
				c3.8,0,5.8,2.1,5.8,2.1L138.8,2c0,0-1.9-1.7-4.3-1.7c-1.6,0-2.9,1-2.9,2.3c0,3.4,9.1,2.6,9.1,8.8c0,3.1-2.3,5.7-6.4,5.7
				c-4.3,0-6.7-2.6-6.7-2.6L129.5,11.8z"/>
		</g>
		<g>
			<path fill="#5D967F" d="M36-2.6l-3.2,13.4c-0.2,1.1-0.3,2-0.3,2h-0.1c0,0-0.1-0.9-0.4-2L28.6-2.6h-3.1l-3.5,13.4
				c-0.3,1.1-0.3,2-0.4,2h-0.1c0,0-0.1-1-0.3-2L19,0.7l-1.7,7.3l2.2,8.7h4.1l3-11.4C26.9,4,27,2.8,27,2.8h0.1c0,0,0.2,1.3,0.5,2.5
				l3,11.4h4.1l5-19.4L36-2.6L36-2.6z"/>
		</g>
		<g>
			<path fill="#5D967F" d="M57.8-2.6l-3.2,13.4c-0.2,1.1-0.3,2-0.3,2h-0.1c0,0-0.1-0.9-0.4-2L50.4-2.6h-3l-3.5,13.4
				c-0.3,1.1-0.3,2-0.4,2h-0.1c0,0-0.1-1-0.3-2L40.9,0.7L39.1,8l2.2,8.7h4.1l3-11.4c0.3-1.3,0.5-2.5,0.5-2.5h0.1
				c0,0,0.2,1.3,0.5,2.5l3,11.4h4.1l5-19.4H57.8L57.8-2.6z"/>
		</g>
		<g>
			<path fill="#2E2D2D" d="M-14.3,11.8H-21l-1.6,5h-3.6l6.8-19.4h3.7L-9,16.7h-3.6L-14.3,11.8z M-17.7,0.7c0,0-0.4,1.9-0.8,3
				l-1.7,5.2h5.1l-1.7-5.2C-17.2,2.6-17.6,0.7-17.7,0.7L-17.7,0.7z"/>
		</g>
		<g>
			<path fill="#2E2D2D" d="M10.2,10.8c0.3,1.1,0.3,2,0.4,2h0.1c0,0,0.1-1,0.3-2l3.2-13.4h3.6l-5,19.4H8.7l-3-11.4
				C5.4,4,5.2,2.8,5.2,2.8H5.2c0,0-0.2,1.3-0.5,2.5l-3,11.4h-4.1L-7.2-2.6h3.6l3.1,13.4c0.2,1.1,0.3,2,0.3,2h0.1c0,0,0.1-0.9,0.4-2
				L3.7-2.6h3L10.2,10.8z"/>
		</g>
	</g>
	<g>
		<path fill="#2E2D2D" d="M148.3-2.7c1.9,0,3.3,1.5,3.3,3.4c0,1.9-1.5,3.4-3.3,3.4c-1.8,0-3.3-1.5-3.3-3.4
			C145-1.2,146.4-2.7,148.3-2.7z M148.3,3.7c1.6,0,2.9-1.3,2.9-3c0-1.7-1.3-3-2.9-3c-1.6,0-2.9,1.3-2.9,3
			C145.4,2.4,146.6,3.7,148.3,3.7z M147.2-1.2h1.2c0.6,0,1.1,0.4,1.1,1.1c0,0.6-0.3,0.9-0.7,1v0c0,0,0,0,0.1,0.2l0.7,1.4h-0.5
			L148.4,1h-0.8v1.6h-0.4L147.2-1.2L147.2-1.2z M148.4,0.7c0.4,0,0.7-0.3,0.7-0.7c0-0.4-0.3-0.7-0.7-0.7h-0.8v1.4H148.4z"/>
	</g>
</g>
</svg>
