<?xml version="1.0" encoding="utf-8"?>
<!-- Generator: Adobe Illustrator 18.1.1, SVG Export Plug-In . SVG Version: 6.00 Build 0)  -->
<!DOCTYPE svg PUBLIC "-//W3C//DTD SVG 1.1//EN" "http://www.w3.org/Graphics/SVG/1.1/DTD/svg11.dtd">
<svg version="1.1" id="Layer_1" xmlns="http://www.w3.org/2000/svg" xmlns:xlink="http://www.w3.org/1999/xlink" x="0px" y="0px"
	 viewBox="0 13.2 566.9 510.1" enable-background="new 0 13.2 566.9 510.1" xml:space="preserve">
<g id="logo">
</g>
<g id="Layer_4">
</g>
<g id="C">
	<g>
		<path fill="#272727" d="M62.1,388.6c-2.1-0.3-7.8-1.9-9.5-7.3c-1.7-5.4,1.6-11.1,1.6-11.1l25.6-53.4l-17.5-48.4L2.7,392.3
			c0,0-4.2,7.1-2.1,13.7c2.2,6.7,9.3,8.7,11.8,9.1l106.6,10.3l-11.7-32.5L62.1,388.6z"/>
		<path fill="#272727" d="M507.3,285.4l-33.4,33.5l34.8,96.5c0,0,2.9,8.6-2.4,12.3c-4.8,3.3-13.6,2.2-13.6,2.2l-117.9-11.4
			l-28.4,28.5l199.8,19.3c0,0,10.9,1.5,16.9-2.6c6.6-4.6,3-15.2,3-15.2L507.3,285.4z"/>
		<path fill="#272727" d="M441.7,209.3c-1.9-0.9-210.6-95.8-210.6-95.8l-5.9-2.6c0,0-2.7-1.4-6-0.2c-3.1,1.1-4.2,3.5-4.2,3.5
			c-0.4,0.8-60.4,124.4-60.4,124.4l68,188.6c0,0,1.2,3.6,4.6,5.2c4,1.9,7.2,0.2,8.9-1.2l207.3-208.2c0,0,2.6-2.9,2.5-6.4
			C445.7,214.4,445.5,211.2,441.7,209.3z"/>
		<path fill="#272727" d="M444.6,397.1c0,0,7,0.9,10.7-1.7c4.1-2.9,1.9-9.7,1.9-9.7l-28.3-78.6l115.5-116.1c0,0,4.2-4.6,3.9-10.1
			c-0.2-3.4-0.6-8.4-6.6-11.3c-3.1-1.4-332.5-151.2-332.5-151.2l-9.3-4.2c0,0-4.4-2.2-9.6-0.3c-4.8,1.7-6.7,5.5-6.7,5.5
			C182.9,20.8,88.1,216,88.1,216l33,91.5l-20.6,42.9c0,0-2.6,4.5-1.3,8.7c1.3,4.2,5.9,5.5,7.5,5.7l36.4,3.6l52.5,145.5
			c0,0,2,5.7,7.4,8.2c6.3,3,11.3,0.3,14-2l131.7-132.4L444.6,397.1z M215.7,474.8c-4.3-2.1-6-6.6-6-6.6l-86.7-240.3
			c0,0,76.4-157.4,77-158.5c0,0,1.5-3.1,5.4-4.5c4.2-1.5,7.7,0.2,7.7,0.2l7.5,3.4c0,0,265.8,120.9,268.2,122
			c4.9,2.3,5.2,6.4,5.4,9.1c0.2,4.5-3.1,8.1-3.1,8.1L227.1,473.3C224.9,475.1,220.8,477.2,215.7,474.8z"/>
	</g>
</g>
</svg>
