<?xml version="1.0" encoding="utf-8"?>
<!-- Generator: Adobe Illustrator 18.1.1, SVG Export Plug-In . SVG Version: 6.00 Build 0)  -->
<!DOCTYPE svg PUBLIC "-//W3C//DTD SVG 1.1//EN" "http://www.w3.org/Graphics/SVG/1.1/DTD/svg11.dtd">
<svg version="1.1" id="Ebene_1" xmlns="http://www.w3.org/2000/svg" xmlns:xlink="http://www.w3.org/1999/xlink" x="0px" y="0px"
	 viewBox="0 0 57.9 85.8" enable-background="new 0 0 57.9 85.8" xml:space="preserve">
<path fill="#5C2483" d="M0.2,67.9c0-0.4,0.1-0.7,0.2-1c0.1-0.3,0.3-0.6,0.5-0.8c0.2-0.2,0.5-0.4,0.8-0.6c0.3-0.1,0.7-0.2,1.1-0.2
	c0.3,0,0.5,0,0.8,0.1c0.2,0.1,0.4,0.2,0.6,0.3c0.2,0.1,0.3,0.2,0.4,0.4c0.1,0.1,0.1,0.3,0.1,0.4c0,0.1,0,0.3-0.1,0.3
	c-0.1,0.1-0.2,0.1-0.3,0.1c-0.1,0-0.2,0-0.3,0c-0.1,0-0.2-0.1-0.3-0.2c-0.1-0.1-0.2-0.1-0.4-0.2c-0.1-0.1-0.3-0.1-0.5-0.1
	c-0.3,0-0.6,0.1-0.9,0.3c-0.3,0.2-0.4,0.6-0.4,1.1v2.1c0,0.5,0.1,0.8,0.4,1.1c0.3,0.2,0.6,0.3,0.9,0.3c0.2,0,0.4,0,0.5,0
	c0.1,0,0.2-0.1,0.4-0.1C3.8,71,3.8,71,3.9,70.9c0.1,0,0.1-0.1,0.2-0.1c0,0,0.1,0,0.1,0c0,0,0.1,0,0.2,0c0.1,0,0.3,0,0.3,0.1
	c0.1,0.1,0.1,0.2,0.1,0.3c0,0.2,0,0.3-0.1,0.4c-0.1,0.1-0.2,0.3-0.4,0.4c-0.2,0.1-0.4,0.2-0.6,0.3c-0.2,0.1-0.5,0.1-0.8,0.1
	c-0.4,0-0.8-0.1-1.1-0.2c-0.3-0.1-0.6-0.3-0.8-0.6c-0.2-0.2-0.4-0.5-0.5-0.8c-0.1-0.3-0.2-0.7-0.2-1V67.9z"/>
<path fill="#5C2483" d="M2.8,72.7c-0.4,0-0.8-0.1-1.2-0.2c-0.3-0.2-0.6-0.4-0.9-0.6c-0.2-0.3-0.4-0.6-0.5-0.9
	C0.1,70.5,0,70.1,0,69.8v-1.9c0-0.4,0.1-0.8,0.2-1.1c0.1-0.4,0.3-0.7,0.5-0.9c0.2-0.3,0.5-0.5,0.9-0.6c0.6-0.3,1.4-0.3,2.1-0.1
	c0.3,0.1,0.5,0.2,0.7,0.3c0.2,0.1,0.4,0.3,0.5,0.4C5,66,5,66.2,5,66.4c0,0.2-0.1,0.4-0.2,0.5c-0.2,0.2-0.6,0.2-0.9,0.1
	c-0.1,0-0.2-0.1-0.4-0.2c-0.1-0.1-0.2-0.1-0.3-0.2c-0.1,0-0.2-0.1-0.4-0.1c-0.3,0-0.5,0.1-0.7,0.3c-0.2,0.2-0.3,0.5-0.3,0.9v2.1
	c0,0.4,0.1,0.7,0.3,0.9C2.3,70.9,2.5,71,2.8,71c0.2,0,0.3,0,0.5,0c0.1,0,0.2-0.1,0.3-0.1c0.1,0,0.1-0.1,0.2-0.1
	c0.1,0,0.1-0.1,0.2-0.1c0.1,0,0.1,0,0.2-0.1c0,0,0.1,0,0.2,0c0.2,0,0.4,0.1,0.5,0.2C5,70.9,5,71.1,5,71.3c0,0.2-0.1,0.4-0.2,0.6
	c-0.1,0.2-0.3,0.3-0.5,0.4c-0.2,0.1-0.4,0.2-0.7,0.3C3.4,72.6,3.1,72.7,2.8,72.7 M2.8,65.5c-0.4,0-0.7,0.1-1,0.2
	c-0.3,0.1-0.5,0.3-0.7,0.5c-0.2,0.2-0.3,0.5-0.4,0.8c-0.1,0.3-0.1,0.6-0.1,0.9v1.9c0,0.3,0,0.6,0.1,0.9c0.1,0.3,0.2,0.5,0.4,0.8
	c0.2,0.2,0.4,0.4,0.7,0.5c0.5,0.2,1.2,0.3,1.7,0.1c0.2-0.1,0.4-0.1,0.6-0.2c0.1-0.1,0.3-0.2,0.3-0.3c0.1-0.1,0.1-0.2,0.1-0.3
	c0-0.1,0-0.1,0-0.2c-0.1-0.1-0.2,0-0.3,0c0,0-0.1,0-0.1,0c0,0-0.1,0-0.1,0.1c0,0-0.1,0.1-0.2,0.1c-0.1,0.1-0.3,0.1-0.4,0.2
	c-0.2,0-0.3,0.1-0.6,0.1c-0.4,0-0.8-0.1-1.1-0.4c-0.3-0.3-0.5-0.7-0.5-1.3v-2.1c0-0.6,0.2-1,0.5-1.3c0.3-0.3,0.7-0.4,1.1-0.4
	c0.2,0,0.4,0,0.6,0.1c0.1,0.1,0.3,0.1,0.4,0.2c0.1,0.1,0.2,0.1,0.3,0.1c0.1,0,0.3,0.1,0.4,0c0,0,0.1,0,0.1-0.2c0-0.1,0-0.2-0.1-0.3
	c-0.1-0.1-0.2-0.2-0.3-0.3c-0.2-0.1-0.3-0.2-0.6-0.2C3.3,65.5,3.1,65.5,2.8,65.5"/>
<path fill="#5C2483" d="M8.5,72.4c-0.1,0-0.2,0-0.4,0c-0.2,0-0.3-0.1-0.5-0.1c-0.2-0.1-0.3-0.1-0.5-0.2c-0.2-0.1-0.3-0.2-0.5-0.3
	c-0.1-0.1-0.3-0.2-0.3-0.3c-0.1-0.1-0.1-0.3-0.1-0.4c0-0.3,0.2-0.5,0.6-0.5c0.1,0,0.2,0,0.3,0.1c0.1,0.1,0.2,0.1,0.3,0.2
	c0.1,0.1,0.3,0.2,0.5,0.3c0.2,0.1,0.5,0.1,0.7,0.1c0.3,0,0.5-0.1,0.7-0.2c0.2-0.1,0.3-0.3,0.3-0.6c0-0.2-0.1-0.4-0.2-0.6
	c-0.2-0.1-0.4-0.3-0.6-0.4c-0.2-0.1-0.5-0.2-0.8-0.3c-0.3-0.1-0.5-0.2-0.8-0.4c-0.2-0.2-0.4-0.4-0.6-0.6c-0.2-0.2-0.2-0.6-0.2-0.9
	c0-0.3,0.1-0.6,0.2-0.8c0.1-0.2,0.2-0.5,0.4-0.6c0.2-0.2,0.4-0.3,0.7-0.4c0.3-0.1,0.6-0.1,0.9-0.1c0.4,0,0.7,0,1,0.1
	c0.3,0.1,0.5,0.2,0.7,0.3c0.2,0.1,0.3,0.3,0.4,0.4c0.1,0.1,0.1,0.3,0.1,0.4c0,0.2,0,0.3-0.1,0.4C10.5,67,10.3,67,10.1,67
	c-0.1,0-0.2,0-0.3-0.1c-0.1-0.1-0.2-0.1-0.3-0.2c-0.1-0.1-0.2-0.2-0.4-0.3c-0.2-0.1-0.4-0.1-0.7-0.1c-0.3,0-0.5,0.1-0.6,0.2
	c-0.2,0.1-0.3,0.3-0.3,0.6c0,0.2,0.1,0.4,0.2,0.6c0.2,0.1,0.4,0.3,0.6,0.4c0.2,0.1,0.5,0.2,0.8,0.3c0.3,0.1,0.5,0.2,0.8,0.4
	c0.2,0.2,0.4,0.4,0.6,0.6c0.2,0.2,0.2,0.6,0.2,1c0,0.6-0.2,1.1-0.6,1.4C9.7,72.2,9.2,72.4,8.5,72.4"/>
<path fill="#5C2483" d="M8.5,72.7c-0.1,0-0.3,0-0.4,0c-0.2,0-0.3-0.1-0.5-0.1c-0.2-0.1-0.4-0.1-0.5-0.2c-0.2-0.1-0.4-0.2-0.5-0.3
	c-0.2-0.1-0.3-0.2-0.4-0.4c-0.1-0.2-0.2-0.4-0.2-0.6c0-0.5,0.3-0.8,0.8-0.8c0.2,0,0.3,0.1,0.5,0.1c0.1,0.1,0.2,0.1,0.3,0.2
	c0.1,0.1,0.2,0.2,0.4,0.3c0.4,0.2,0.9,0.2,1.2,0c0,0,0.2-0.1,0.2-0.4c0-0.2-0.1-0.3-0.2-0.4c-0.1-0.1-0.3-0.3-0.5-0.4
	c-0.2-0.1-0.5-0.2-0.8-0.3c-0.3-0.1-0.6-0.3-0.8-0.4c-0.3-0.2-0.5-0.4-0.7-0.7C6.1,68,6,67.7,6,67.2c0-0.3,0.1-0.7,0.2-0.9
	c0.1-0.3,0.3-0.5,0.5-0.7c0.2-0.2,0.5-0.4,0.8-0.5c0.6-0.2,1.5-0.2,2.1,0c0.3,0.1,0.6,0.2,0.8,0.4c0.2,0.2,0.4,0.3,0.5,0.5
	c0.1,0.2,0.2,0.3,0.2,0.5c0,0.2-0.1,0.4-0.2,0.6c-0.1,0.1-0.3,0.3-0.6,0.3c-0.2,0-0.3,0-0.4-0.1C9.6,67.1,9.5,67,9.4,67
	c-0.1,0-0.2-0.1-0.4-0.2c-0.1-0.1-0.4-0.1-0.6-0.1c-0.2,0-0.4,0-0.5,0.2c-0.1,0.1-0.2,0.2-0.2,0.4c0,0.2,0,0.3,0.2,0.4
	c0.1,0.1,0.3,0.2,0.5,0.3c0.2,0.1,0.5,0.2,0.8,0.3c0.3,0.1,0.6,0.3,0.8,0.4c0.3,0.2,0.5,0.4,0.7,0.7c0.2,0.3,0.3,0.7,0.3,1.1
	c0,0.7-0.2,1.2-0.7,1.6C9.8,72.5,9.2,72.7,8.5,72.7 M6.6,70.8c-0.3,0-0.3,0.1-0.3,0.3c0,0.1,0,0.2,0.1,0.3c0.1,0.1,0.2,0.2,0.3,0.3
	c0.1,0.1,0.3,0.2,0.4,0.2C7.3,71.9,7.5,72,7.6,72c0.2,0,0.3,0.1,0.5,0.1c0.1,0,0.3,0,0.4,0c0.6,0,1.1-0.2,1.5-0.5
	c0.3-0.3,0.5-0.7,0.5-1.3c0-0.3-0.1-0.6-0.2-0.8c-0.1-0.2-0.3-0.4-0.5-0.5c-0.2-0.1-0.5-0.3-0.7-0.4c-0.3-0.1-0.5-0.2-0.8-0.3
	c-0.3-0.1-0.5-0.3-0.6-0.4c-0.2-0.2-0.3-0.4-0.3-0.7c0-0.3,0.1-0.6,0.3-0.8c0.2-0.2,0.5-0.3,0.8-0.3c0.4,0,0.6,0.1,0.8,0.2
	c0.2,0.1,0.3,0.2,0.4,0.3c0.1,0.1,0.1,0.1,0.2,0.1c0.1,0.1,0.4,0,0.4,0c0-0.1,0.1-0.1,0.1-0.3c0,0,0-0.1-0.1-0.2
	c-0.1-0.1-0.2-0.2-0.4-0.3c-0.2-0.1-0.4-0.2-0.6-0.3c-0.5-0.2-1.2-0.2-1.7,0C7.4,65.7,7.2,65.8,7,66c-0.2,0.2-0.3,0.3-0.4,0.6
	c-0.1,0.2-0.1,0.5-0.1,0.7c0,0.3,0.1,0.6,0.2,0.8c0.1,0.2,0.3,0.4,0.5,0.5c0.2,0.2,0.5,0.3,0.7,0.4c0.3,0.1,0.5,0.2,0.8,0.3
	c0.3,0.1,0.5,0.3,0.7,0.4c0.2,0.2,0.3,0.4,0.3,0.8c0,0.4-0.2,0.7-0.4,0.8c-0.4,0.3-1.1,0.3-1.7,0.1c-0.3-0.1-0.5-0.2-0.6-0.4
	C7,71,6.9,70.9,6.9,70.9C6.8,70.8,6.7,70.8,6.6,70.8"/>
<path fill="#5C2483" d="M14.7,72.4c-0.1,0-0.2,0-0.4,0c-0.2,0-0.3-0.1-0.5-0.1c-0.2-0.1-0.3-0.1-0.5-0.2c-0.2-0.1-0.3-0.2-0.5-0.3
	c-0.1-0.1-0.3-0.2-0.3-0.3c-0.1-0.1-0.1-0.3-0.1-0.4c0-0.3,0.2-0.5,0.6-0.5c0.1,0,0.2,0,0.3,0.1c0.1,0.1,0.2,0.1,0.3,0.2
	c0.1,0.1,0.3,0.2,0.5,0.3c0.2,0.1,0.5,0.1,0.7,0.1c0.3,0,0.5-0.1,0.7-0.2c0.2-0.1,0.3-0.3,0.3-0.6c0-0.2-0.1-0.4-0.2-0.6
	c-0.2-0.1-0.4-0.3-0.6-0.4c-0.2-0.1-0.5-0.2-0.8-0.3c-0.3-0.1-0.5-0.2-0.8-0.4c-0.2-0.2-0.4-0.4-0.6-0.6c-0.2-0.2-0.2-0.6-0.2-0.9
	c0-0.3,0.1-0.6,0.2-0.8c0.1-0.2,0.2-0.5,0.4-0.6c0.2-0.2,0.4-0.3,0.7-0.4c0.3-0.1,0.6-0.1,0.9-0.1c0.4,0,0.7,0,1,0.1
	c0.3,0.1,0.5,0.2,0.7,0.3c0.2,0.1,0.3,0.3,0.4,0.4c0.1,0.1,0.1,0.3,0.1,0.4c0,0.2,0,0.3-0.1,0.4C16.7,67,16.6,67,16.4,67
	c-0.1,0-0.2,0-0.3-0.1c-0.1-0.1-0.2-0.1-0.3-0.2c-0.1-0.1-0.2-0.2-0.4-0.3c-0.2-0.1-0.4-0.1-0.7-0.1c-0.3,0-0.5,0.1-0.6,0.2
	c-0.2,0.1-0.3,0.3-0.3,0.6c0,0.2,0.1,0.4,0.2,0.6c0.2,0.1,0.4,0.3,0.6,0.4c0.2,0.1,0.5,0.2,0.8,0.3c0.3,0.1,0.5,0.2,0.8,0.4
	c0.2,0.2,0.4,0.4,0.6,0.6c0.2,0.2,0.2,0.6,0.2,1c0,0.6-0.2,1.1-0.6,1.4C16,72.2,15.4,72.4,14.7,72.4"/>
<path fill="#5C2483" d="M14.7,72.7c-0.1,0-0.3,0-0.4,0c-0.2,0-0.3-0.1-0.5-0.1c-0.2-0.1-0.4-0.1-0.5-0.2c-0.2-0.1-0.4-0.2-0.5-0.3
	c-0.2-0.1-0.3-0.2-0.4-0.4c-0.1-0.2-0.2-0.4-0.2-0.6c0-0.5,0.3-0.8,0.8-0.8c0.2,0,0.3,0.1,0.5,0.1c0.1,0.1,0.2,0.1,0.3,0.2
	c0.1,0.1,0.2,0.2,0.4,0.3c0.4,0.2,0.9,0.2,1.2,0c0,0,0.2-0.1,0.2-0.4c0-0.2-0.1-0.3-0.2-0.4c-0.1-0.1-0.3-0.3-0.5-0.4
	c-0.2-0.1-0.5-0.2-0.8-0.3c-0.3-0.1-0.6-0.3-0.8-0.4c-0.3-0.2-0.5-0.4-0.7-0.7c-0.2-0.3-0.3-0.6-0.3-1.1c0-0.3,0.1-0.6,0.2-0.9
	c0.1-0.3,0.3-0.5,0.5-0.7c0.2-0.2,0.5-0.4,0.8-0.5c0.6-0.2,1.5-0.2,2.1,0c0.3,0.1,0.6,0.2,0.8,0.4c0.2,0.2,0.4,0.3,0.5,0.5
	c0.1,0.2,0.2,0.3,0.2,0.5c0,0.2-0.1,0.4-0.2,0.6c-0.1,0.1-0.3,0.3-0.6,0.3c-0.2,0-0.3,0-0.4-0.1c-0.1-0.1-0.2-0.1-0.3-0.2
	c-0.1,0-0.2-0.1-0.4-0.2c-0.1-0.1-0.4-0.1-0.6-0.1c-0.2,0-0.4,0-0.5,0.2C14.1,66.9,14,67,14,67.2c0,0.2,0,0.3,0.2,0.4
	c0.1,0.1,0.3,0.2,0.5,0.3c0.2,0.1,0.5,0.2,0.8,0.3c0.3,0.1,0.6,0.3,0.8,0.4c0.3,0.2,0.5,0.4,0.7,0.7c0.2,0.3,0.3,0.7,0.3,1.1
	c0,0.7-0.2,1.2-0.7,1.6C16.1,72.5,15.5,72.7,14.7,72.7 M12.9,70.8c-0.3,0-0.3,0.1-0.3,0.3c0,0.1,0,0.2,0.1,0.3
	c0.1,0.1,0.2,0.2,0.3,0.3c0.1,0.1,0.3,0.2,0.4,0.2c0.2,0.1,0.3,0.1,0.5,0.2c0.2,0,0.3,0.1,0.5,0.1c0.1,0,0.3,0,0.4,0
	c0.6,0,1.1-0.2,1.5-0.5c0.3-0.3,0.5-0.7,0.5-1.3c0-0.3-0.1-0.6-0.2-0.8c-0.1-0.2-0.3-0.4-0.5-0.5c-0.2-0.1-0.5-0.3-0.7-0.4
	c-0.3-0.1-0.5-0.2-0.8-0.3c-0.3-0.1-0.5-0.3-0.6-0.4c-0.2-0.2-0.3-0.4-0.3-0.7c0-0.3,0.1-0.6,0.3-0.8c0.2-0.2,0.5-0.3,0.8-0.3
	c0.4,0,0.6,0.1,0.8,0.2c0.2,0.1,0.3,0.2,0.4,0.3c0.1,0.1,0.1,0.1,0.2,0.2c0.1,0,0.1,0,0.2,0c0.1,0,0.2,0,0.2-0.1
	c0-0.1,0.1-0.1,0.1-0.3c0,0,0-0.1-0.1-0.2c-0.1-0.1-0.2-0.2-0.4-0.3c-0.2-0.1-0.4-0.2-0.6-0.3c-0.5-0.2-1.2-0.2-1.7,0
	c-0.2,0.1-0.4,0.2-0.6,0.4c-0.2,0.2-0.3,0.3-0.4,0.6c-0.1,0.2-0.1,0.5-0.1,0.7c0,0.3,0.1,0.6,0.2,0.8c0.1,0.2,0.3,0.4,0.5,0.5
	c0.2,0.2,0.5,0.3,0.7,0.4c0.3,0.1,0.5,0.2,0.8,0.3c0.3,0.1,0.5,0.3,0.7,0.4c0.2,0.2,0.3,0.5,0.3,0.8c0,0.4-0.2,0.7-0.4,0.8
	c-0.4,0.3-1.1,0.3-1.7,0.1c-0.3-0.1-0.5-0.2-0.6-0.4c-0.1-0.1-0.1-0.1-0.2-0.2C13.1,70.8,13,70.8,12.9,70.8"/>
<path fill="#5C2483" d="M22.2,65.8c0-0.1,0.1-0.3,0.2-0.4c0.1-0.1,0.3-0.2,0.5-0.2h1.4c0.5,0,0.9,0.1,1.3,0.2
	c0.4,0.2,0.7,0.4,0.9,0.6c0.2,0.3,0.4,0.6,0.5,0.9c0.1,0.4,0.2,0.7,0.2,1.2v1.2c0,0.4-0.1,0.8-0.2,1.1c-0.1,0.3-0.3,0.6-0.5,0.9
	c-0.2,0.3-0.5,0.5-0.9,0.6c-0.4,0.1-0.8,0.2-1.3,0.2h-1.4c-0.2,0-0.4-0.1-0.5-0.2c-0.1-0.1-0.2-0.2-0.2-0.4V65.8z M23.5,66.5v4.7
	h0.8c0.5,0,0.9-0.1,1.2-0.4c0.3-0.3,0.4-0.6,0.4-1.1v-1.4c0-0.5-0.1-0.9-0.4-1.2c-0.3-0.3-0.7-0.4-1.2-0.4H23.5z"/>
<path fill="#5C2483" d="M24.3,72.5h-1.4c-0.3,0-0.5-0.1-0.6-0.2C22.1,72.2,22,72,22,71.8v-6c0-0.2,0.1-0.4,0.3-0.5
	c0.2-0.1,0.4-0.2,0.6-0.2h1.4c0.5,0,1,0.1,1.4,0.3c0.4,0.2,0.7,0.4,1,0.7c0.3,0.3,0.5,0.6,0.6,1c0.1,0.4,0.2,0.8,0.2,1.2v1.2
	c0,0.4-0.1,0.8-0.2,1.2c-0.1,0.4-0.3,0.7-0.6,1c-0.3,0.3-0.6,0.5-1,0.7C25.3,72.5,24.8,72.5,24.3,72.5 M22.9,65.6
	c-0.1,0-0.2,0-0.3,0.1c-0.1,0.1-0.1,0.1-0.1,0.2v6c0,0,0,0.1,0.1,0.2c0.1,0.1,0.2,0.1,0.3,0.1h1.4c0.5,0,0.9-0.1,1.2-0.2
	c0.3-0.1,0.6-0.3,0.8-0.5c0.2-0.2,0.4-0.5,0.5-0.8c0.1-0.3,0.2-0.7,0.2-1v-1.2c0-0.4-0.1-0.7-0.2-1.1c-0.1-0.3-0.3-0.6-0.5-0.8
	c-0.2-0.2-0.5-0.4-0.8-0.6c-0.3-0.1-0.7-0.2-1.2-0.2H22.9z M24.3,71.4h-1v-5.2h1c0.6,0,1,0.2,1.4,0.5c0.3,0.3,0.5,0.8,0.5,1.4v1.4
	c0,0.6-0.2,1-0.5,1.3C25.3,71.2,24.8,71.4,24.3,71.4 M23.7,70.9h0.5c0.4,0,0.8-0.1,1-0.3c0.2-0.2,0.3-0.5,0.3-1v-1.4
	c0-0.5-0.1-0.8-0.4-1.1c-0.2-0.3-0.6-0.4-1-0.4h-0.5V70.9z"/>
<path fill="#5C2483" d="M33.4,65.5c0.1,0.1,0.2,0.3,0.2,0.4c0,0.2-0.1,0.3-0.2,0.4c-0.1,0.1-0.3,0.2-0.5,0.2h-2.4v1.7h1.6
	c0.2,0,0.4,0.1,0.5,0.2c0.1,0.1,0.2,0.3,0.2,0.4c0,0.2-0.1,0.3-0.2,0.4c-0.1,0.1-0.3,0.2-0.5,0.2h-1.6v1.8H33c0.2,0,0.4,0.1,0.5,0.2
	c0.1,0.1,0.2,0.2,0.2,0.4c0,0.2-0.1,0.3-0.2,0.4c-0.1,0.1-0.3,0.2-0.5,0.2h-3.1c-0.2,0-0.4-0.1-0.5-0.2c-0.1-0.1-0.2-0.2-0.2-0.4v-6
	c0-0.1,0.1-0.3,0.2-0.4c0.1-0.1,0.3-0.2,0.5-0.2H33C33.2,65.3,33.3,65.4,33.4,65.5"/>
<path fill="#5C2483" d="M33,72.5h-3.1c-0.3,0-0.5-0.1-0.6-0.2C29.1,72.2,29,72,29,71.8v-6c0-0.2,0.1-0.4,0.3-0.5
	c0.2-0.1,0.4-0.2,0.6-0.2H33c0.3,0,0.5,0.1,0.6,0.2c0.2,0.2,0.2,0.4,0.2,0.6c0,0.2-0.1,0.4-0.2,0.6c-0.2,0.2-0.4,0.2-0.6,0.2h-2.2
	v1.2h1.4c0.3,0,0.5,0.1,0.7,0.2c0.2,0.2,0.2,0.4,0.2,0.6c0,0.2-0.1,0.4-0.2,0.6c-0.2,0.2-0.4,0.2-0.7,0.2h-1.4v1.3H33
	c0.3,0,0.5,0.1,0.6,0.2c0.2,0.1,0.2,0.4,0.2,0.6c0,0.2-0.1,0.4-0.2,0.6C33.4,72.5,33.2,72.5,33,72.5 M29.9,65.6
	c-0.1,0-0.2,0-0.3,0.1c-0.1,0.1-0.1,0.1-0.1,0.2v6c0,0,0,0.1,0.1,0.2c0.1,0.1,0.2,0.1,0.3,0.1H33c0.1,0,0.2,0,0.3-0.1
	c0.1-0.1,0.1-0.1,0.1-0.2c0-0.1,0-0.2-0.1-0.2c-0.1-0.1-0.2-0.1-0.3-0.1h-2.7v-2.3h1.9c0.1,0,0.2,0,0.3-0.1c0.1-0.1,0.1-0.1,0.1-0.2
	c0-0.2,0-0.2-0.1-0.3c-0.1-0.1-0.2-0.1-0.3-0.1h-1.9v-2.2H33c0.1,0,0.2,0,0.3-0.1c0.1-0.1,0.1-0.1,0.1-0.2c0-0.1,0-0.2-0.1-0.3
	c-0.1-0.1-0.2-0.1-0.3-0.1H29.9z"/>
<path fill="#5C2483" d="M37.5,72.4c-0.1,0-0.2,0-0.4,0c-0.2,0-0.3-0.1-0.5-0.1c-0.2-0.1-0.3-0.1-0.5-0.2c-0.2-0.1-0.3-0.2-0.5-0.3
	c-0.1-0.1-0.3-0.2-0.3-0.3c-0.1-0.1-0.1-0.3-0.1-0.4c0-0.3,0.2-0.5,0.6-0.5c0.1,0,0.2,0,0.3,0.1c0.1,0.1,0.2,0.1,0.3,0.2
	c0.1,0.1,0.3,0.2,0.5,0.3c0.2,0.1,0.5,0.1,0.7,0.1c0.3,0,0.5-0.1,0.7-0.2c0.2-0.1,0.3-0.3,0.3-0.6c0-0.2-0.1-0.4-0.2-0.6
	c-0.2-0.1-0.4-0.3-0.6-0.4c-0.2-0.1-0.5-0.2-0.8-0.3c-0.3-0.1-0.5-0.2-0.8-0.4c-0.2-0.2-0.4-0.4-0.6-0.6c-0.2-0.2-0.2-0.6-0.2-0.9
	c0-0.3,0.1-0.6,0.2-0.8c0.1-0.2,0.2-0.5,0.4-0.6c0.2-0.2,0.4-0.3,0.7-0.4c0.3-0.1,0.6-0.1,0.9-0.1c0.4,0,0.7,0,1,0.1
	c0.3,0.1,0.5,0.2,0.7,0.3c0.2,0.1,0.3,0.3,0.4,0.4c0.1,0.1,0.1,0.3,0.1,0.4c0,0.2,0,0.3-0.1,0.4C39.5,67,39.4,67,39.2,67
	c-0.1,0-0.2,0-0.3-0.1c-0.1-0.1-0.2-0.1-0.3-0.2c-0.1-0.1-0.2-0.2-0.4-0.3c-0.2-0.1-0.4-0.1-0.7-0.1c-0.3,0-0.5,0.1-0.6,0.2
	c-0.2,0.1-0.3,0.3-0.3,0.6c0,0.2,0.1,0.4,0.2,0.6c0.2,0.1,0.4,0.3,0.6,0.4c0.2,0.1,0.5,0.2,0.8,0.3c0.3,0.1,0.5,0.2,0.8,0.4
	c0.2,0.2,0.4,0.4,0.6,0.6c0.2,0.2,0.2,0.6,0.2,1c0,0.6-0.2,1.1-0.6,1.4C38.8,72.2,38.2,72.4,37.5,72.4"/>
<path fill="#5C2483" d="M37.5,72.7c-0.1,0-0.3,0-0.4,0c-0.2,0-0.3-0.1-0.5-0.1c-0.2-0.1-0.4-0.1-0.5-0.2c-0.2-0.1-0.4-0.2-0.5-0.3
	c-0.2-0.1-0.3-0.2-0.4-0.4c-0.1-0.2-0.2-0.4-0.2-0.6c0-0.5,0.3-0.8,0.8-0.8c0.2,0,0.3,0.1,0.5,0.1c0.1,0.1,0.2,0.1,0.3,0.2
	c0.1,0.1,0.2,0.2,0.4,0.3c0.4,0.2,0.9,0.2,1.2,0c0,0,0.2-0.1,0.2-0.4c0-0.2-0.1-0.3-0.2-0.4c-0.1-0.1-0.3-0.3-0.5-0.4
	c-0.2-0.1-0.5-0.2-0.8-0.3c-0.3-0.1-0.6-0.3-0.8-0.4c-0.3-0.2-0.5-0.4-0.7-0.7c-0.2-0.3-0.3-0.6-0.3-1.1c0-0.3,0.1-0.7,0.2-0.9
	c0.1-0.3,0.3-0.5,0.5-0.7c0.2-0.2,0.5-0.4,0.8-0.5c0.6-0.2,1.5-0.2,2.1,0c0.3,0.1,0.5,0.2,0.8,0.4c0.2,0.2,0.4,0.3,0.5,0.5
	c0.1,0.2,0.2,0.3,0.2,0.5c0,0.2-0.1,0.4-0.2,0.6c-0.1,0.2-0.3,0.3-0.6,0.3c-0.2,0-0.3,0-0.4-0.1c-0.1-0.1-0.2-0.1-0.3-0.2
	c-0.1,0-0.2-0.1-0.4-0.2c-0.1-0.1-0.4-0.1-0.6-0.1c-0.2,0-0.4,0-0.5,0.2c-0.1,0.1-0.2,0.2-0.2,0.4c0,0.2,0,0.3,0.2,0.4
	c0.1,0.1,0.3,0.2,0.5,0.3c0.2,0.1,0.5,0.2,0.8,0.3c0.3,0.1,0.6,0.3,0.8,0.4c0.3,0.2,0.5,0.4,0.7,0.7C40,69.6,40,70,40,70.4
	c0,0.7-0.2,1.2-0.7,1.6C38.9,72.5,38.3,72.7,37.5,72.7 M35.7,70.8c-0.3,0-0.3,0.1-0.3,0.3c0,0.1,0,0.2,0.1,0.3
	c0.1,0.1,0.2,0.2,0.3,0.3c0.1,0.1,0.3,0.2,0.4,0.2c0.2,0.1,0.3,0.1,0.5,0.2c0.2,0,0.3,0.1,0.5,0.1c0.1,0,0.3,0,0.4,0
	c0.6,0,1.1-0.2,1.5-0.5c0.3-0.3,0.5-0.7,0.5-1.3c0-0.3-0.1-0.6-0.2-0.8c-0.1-0.2-0.3-0.4-0.5-0.5c-0.2-0.1-0.5-0.3-0.7-0.4
	c-0.3-0.1-0.5-0.2-0.8-0.3c-0.3-0.1-0.5-0.3-0.6-0.4c-0.2-0.2-0.3-0.4-0.3-0.7c0-0.3,0.1-0.6,0.3-0.8c0.2-0.2,0.5-0.3,0.8-0.3
	c0.4,0,0.6,0.1,0.8,0.2c0.2,0.1,0.3,0.2,0.4,0.3c0.1,0.1,0.1,0.1,0.2,0.1c0.1,0.1,0.3,0.1,0.4,0c0-0.1,0.1-0.1,0.1-0.3
	c0,0,0-0.1-0.1-0.2c-0.1-0.1-0.2-0.2-0.4-0.3c-0.2-0.1-0.4-0.2-0.6-0.3c-0.5-0.2-1.2-0.2-1.7,0c-0.2,0.1-0.4,0.2-0.6,0.4
	c-0.2,0.2-0.3,0.3-0.4,0.6c-0.1,0.2-0.1,0.5-0.1,0.7c0,0.3,0.1,0.6,0.2,0.8c0.1,0.2,0.3,0.4,0.5,0.5c0.2,0.2,0.5,0.3,0.7,0.4
	c0.3,0.1,0.5,0.2,0.8,0.3c0.3,0.1,0.5,0.3,0.7,0.4c0.2,0.2,0.3,0.5,0.3,0.8c0,0.4-0.2,0.7-0.4,0.8c-0.4,0.3-1.1,0.3-1.7,0.1
	c-0.3-0.1-0.5-0.2-0.6-0.4c-0.1-0.1-0.1-0.1-0.2-0.2C35.9,70.8,35.8,70.8,35.7,70.8"/>
<path fill="#5C2483" d="M41.7,65.7c0-0.1,0.1-0.2,0.2-0.4c0.1-0.1,0.3-0.2,0.5-0.2c0.2,0,0.3,0.1,0.4,0.2c0.1,0.1,0.2,0.2,0.2,0.4
	v6.2c0,0.1-0.1,0.2-0.2,0.4c-0.1,0.1-0.3,0.2-0.4,0.2c-0.2,0-0.4-0.1-0.5-0.2c-0.1-0.1-0.2-0.2-0.2-0.4V65.7z"/>
<path fill="#5C2483" d="M42.4,72.6c-0.3,0-0.5-0.1-0.6-0.2c-0.2-0.2-0.3-0.3-0.3-0.5v-6.2c0-0.2,0.1-0.4,0.3-0.5
	c0.3-0.3,0.9-0.3,1.3,0c0.2,0.2,0.3,0.3,0.3,0.5v6.2c0,0.2-0.1,0.4-0.3,0.5C42.8,72.6,42.6,72.6,42.4,72.6 M42.4,65.5
	c-0.1,0-0.2,0-0.3,0.1C42,65.6,42,65.7,42,65.7v6.2c0,0,0,0.1,0.1,0.2c0.1,0.1,0.4,0.1,0.6,0c0.1-0.1,0.1-0.1,0.1-0.2v-6.2
	c0,0,0-0.1-0.1-0.2C42.6,65.5,42.5,65.5,42.4,65.5"/>
<path fill="#5C2483" d="M47.6,69.2c0-0.2,0.1-0.3,0.2-0.4c0.1-0.1,0.2-0.2,0.4-0.2h1.3c0.2,0,0.4,0,0.5,0.1c0.1,0.1,0.2,0.2,0.2,0.4
	v2.1c-0.1,0.1-0.2,0.3-0.3,0.4c-0.1,0.1-0.3,0.2-0.5,0.4c-0.2,0.1-0.4,0.2-0.6,0.2c-0.2,0.1-0.5,0.1-0.9,0.1c-0.5,0-0.9-0.1-1.2-0.2
	c-0.3-0.1-0.6-0.3-0.9-0.6c-0.2-0.2-0.4-0.5-0.5-0.8c-0.1-0.3-0.2-0.7-0.2-1v-1.9c0-0.4,0.1-0.7,0.2-1c0.1-0.3,0.3-0.6,0.5-0.8
	c0.2-0.2,0.5-0.4,0.9-0.6c0.3-0.1,0.7-0.2,1.2-0.2c0.4,0,0.8,0.1,1.1,0.2c0.3,0.1,0.6,0.3,0.7,0.4c0.1,0.1,0.2,0.3,0.2,0.4
	c0,0.1-0.1,0.3-0.1,0.3c-0.1,0.1-0.2,0.1-0.4,0.2c-0.2,0-0.3,0-0.5-0.1c-0.1-0.1-0.3-0.1-0.5-0.2c-0.2,0-0.4-0.1-0.5-0.1
	c-0.4,0-0.8,0.1-1,0.3c-0.3,0.2-0.4,0.6-0.4,1.1v2.1c0,0.2,0,0.5,0.1,0.6c0.1,0.2,0.2,0.3,0.3,0.4c0.1,0.1,0.3,0.2,0.5,0.3
	c0.2,0.1,0.4,0.1,0.6,0.1c0.2,0,0.4,0,0.5,0c0.1,0,0.3-0.1,0.4-0.1l0.2-0.1v-1.2h-0.7c-0.2,0-0.3-0.1-0.4-0.2
	C47.7,69.5,47.6,69.4,47.6,69.2"/>
<path fill="#5C2483" d="M47.8,72.7c-0.5,0-0.9-0.1-1.3-0.2c-0.4-0.1-0.7-0.4-1-0.6c-0.3-0.3-0.5-0.6-0.6-0.9
	c-0.1-0.4-0.2-0.7-0.2-1.1v-1.9c0-0.4,0.1-0.8,0.2-1.1c0.1-0.4,0.3-0.7,0.6-0.9c0.3-0.3,0.6-0.5,0.9-0.6c0.7-0.3,1.7-0.3,2.5,0
	c0.4,0.1,0.6,0.3,0.8,0.5c0.2,0.2,0.3,0.4,0.3,0.6c0,0.2-0.1,0.4-0.2,0.5c-0.1,0.1-0.3,0.2-0.5,0.2l-0.1,0c-0.2,0-0.4-0.1-0.6-0.2
	c-0.1-0.1-0.2-0.1-0.4-0.2c-0.6-0.1-1-0.1-1.4,0.2c-0.2,0.2-0.3,0.5-0.3,0.9v2.1c0,0.2,0,0.4,0.1,0.5c0.1,0.1,0.1,0.3,0.3,0.4
	c0.1,0.1,0.2,0.2,0.4,0.2c0.2,0,0.3,0.1,0.5,0.1c0.2,0,0.4,0,0.4,0c0.1,0,0.2-0.1,0.3-0.1l0.1,0V70h-0.4c-0.2,0-0.4-0.1-0.6-0.2
	c-0.2-0.2-0.2-0.4-0.2-0.6c0-0.2,0.1-0.4,0.2-0.6c0.1-0.2,0.4-0.2,0.6-0.2h1.3c0.3,0,0.5,0.1,0.6,0.2c0.2,0.1,0.2,0.3,0.2,0.6v2.2
	l0,0.1c-0.1,0.2-0.2,0.3-0.3,0.5c-0.1,0.2-0.3,0.3-0.5,0.4c-0.2,0.1-0.4,0.2-0.7,0.3C48.5,72.6,48.2,72.7,47.8,72.7 M47.8,65.5
	c-0.4,0-0.8,0.1-1.1,0.2c-0.3,0.1-0.6,0.3-0.8,0.5c-0.2,0.2-0.4,0.5-0.5,0.8c-0.1,0.3-0.2,0.6-0.2,0.9v1.9c0,0.3,0.1,0.6,0.2,0.9
	c0.1,0.3,0.3,0.5,0.5,0.8c0.2,0.2,0.5,0.4,0.8,0.5c0.3,0.1,0.7,0.2,1.1,0.2c0.3,0,0.6,0,0.8-0.1c0.2-0.1,0.4-0.1,0.6-0.2
	c0.2-0.1,0.3-0.2,0.4-0.3c0.1-0.1,0.2-0.2,0.2-0.3v-2.1c0-0.1,0-0.2-0.1-0.2c-0.1,0-0.2-0.1-0.3-0.1h-1.3c-0.1,0-0.2,0-0.2,0.1
	c-0.1,0.1-0.1,0.1-0.1,0.2c0,0.1,0,0.2,0.1,0.2c0,0,0.1,0.1,0.2,0.1h0.9v1.5l-0.3,0.2c-0.2,0.1-0.3,0.2-0.5,0.2
	c-0.3,0.1-0.8,0.1-1.2,0c-0.2-0.1-0.4-0.2-0.6-0.3c-0.2-0.1-0.3-0.3-0.4-0.5c-0.1-0.2-0.1-0.4-0.1-0.7v-2.1c0-0.6,0.2-1,0.5-1.3
	c0.5-0.4,1.1-0.5,1.8-0.3c0.2,0.1,0.4,0.1,0.6,0.2c0.1,0.1,0.2,0.1,0.3,0.1c0.1,0,0.2,0,0.3-0.1c0,0,0.1-0.1,0.1-0.2
	c0-0.1,0-0.2-0.1-0.2c-0.1-0.1-0.4-0.3-0.6-0.4C48.5,65.5,48.2,65.5,47.8,65.5"/>
<path fill="#5C2483" d="M52.2,65.7c0-0.1,0.1-0.2,0.2-0.4c0.1-0.1,0.3-0.2,0.5-0.2c0.2,0,0.3,0,0.4,0.1c0.1,0.1,0.2,0.2,0.2,0.3
	l2.9,4.3v-4.2c0-0.1,0.1-0.2,0.2-0.4c0.1-0.1,0.3-0.2,0.5-0.2c0.2,0,0.3,0.1,0.4,0.2c0.1,0.1,0.2,0.2,0.2,0.4v6.2
	c0,0.1-0.1,0.3-0.2,0.4c-0.1,0.1-0.3,0.2-0.4,0.2c-0.2,0-0.3,0-0.4-0.1c-0.1-0.1-0.2-0.1-0.2-0.2l0-0.1l-2.9-4.2v4.1
	c0,0.1-0.1,0.3-0.2,0.4c-0.1,0.1-0.3,0.2-0.5,0.2c-0.2,0-0.4-0.1-0.5-0.2c-0.1-0.1-0.2-0.2-0.2-0.4V65.7z"/>
<path fill="#5C2483" d="M57,72.7c-0.2,0-0.4,0-0.5-0.1c-0.2-0.1-0.3-0.2-0.3-0.4l0,0l-2.5-3.6v3.3c0,0.2-0.1,0.4-0.2,0.5
	c-0.3,0.3-0.9,0.3-1.3,0c-0.2-0.2-0.3-0.4-0.3-0.5v-6.2c0-0.2,0.1-0.4,0.3-0.5c0.3-0.3,0.9-0.3,1.2,0c0.1,0.1,0.2,0.2,0.3,0.4
	l2.5,3.6v-3.4c0-0.2,0.1-0.4,0.3-0.5c0.3-0.3,0.9-0.3,1.3,0c0.2,0.2,0.2,0.3,0.2,0.5v6.2c0,0.2-0.1,0.4-0.3,0.5
	C57.5,72.6,57.3,72.7,57,72.7 M53.2,67l3.4,5c0,0.1,0.1,0.1,0.1,0.2c0.1,0.1,0.4,0.1,0.5,0c0.1-0.1,0.1-0.1,0.1-0.2v-6.2
	c0,0,0-0.1-0.1-0.2c0,0-0.1-0.1-0.3-0.1c-0.1,0-0.2,0-0.3,0.1c-0.1,0.1-0.1,0.1-0.1,0.2v5l-3.4-5c0-0.1-0.1-0.1-0.1-0.2
	c-0.2-0.1-0.4-0.1-0.6,0c-0.1,0.1-0.1,0.1-0.1,0.2v6.2c0,0,0,0.1,0.1,0.2c0.1,0.1,0.5,0.1,0.6,0c0.1-0.1,0.1-0.1,0.1-0.2V67z"/>
<path fill="#5C2483" d="M14.1,84.8c0,0.1,0,0.3-0.1,0.4c-0.1,0.1-0.2,0.2-0.4,0.3c-0.2,0-0.3,0-0.5,0c-0.1-0.1-0.2-0.2-0.3-0.3
	l-0.4-1.3h-2.4l-0.4,1.3c0,0.1-0.1,0.2-0.3,0.3c-0.1,0.1-0.3,0.1-0.5,0c-0.2-0.1-0.3-0.1-0.4-0.3c-0.1-0.1-0.1-0.3-0.1-0.4l2.1-6
	c0-0.1,0.1-0.2,0.2-0.3c0.1-0.1,0.3-0.1,0.5-0.1c0.2,0,0.3,0,0.5,0.1c0.1,0.1,0.2,0.2,0.3,0.3L14.1,84.8z M10.5,82.8h1.7l-0.8-2.7
	L10.5,82.8z"/>
<path fill="#5C2483" d="M9.2,85.7c-0.1,0-0.2,0-0.3,0c-0.3-0.1-0.5-0.2-0.6-0.4c-0.2-0.2-0.1-0.5-0.1-0.6l2.1-6.1
	c0-0.2,0.2-0.3,0.3-0.4c0.3-0.2,0.9-0.2,1.2,0c0.2,0.1,0.3,0.3,0.3,0.5l2.1,6c0.1,0.2,0,0.4-0.1,0.6c-0.1,0.2-0.3,0.3-0.6,0.4
	c-0.2,0.1-0.5,0-0.7-0.1c-0.2-0.1-0.3-0.3-0.4-0.4l-0.3-1.1h-2L10,85.2c-0.1,0.2-0.2,0.3-0.4,0.4C9.4,85.7,9.3,85.7,9.2,85.7
	 M11.3,78.6c-0.1,0-0.2,0-0.3,0.1c-0.1,0.1-0.1,0.1-0.2,0.2l-2.1,6.1c0,0,0,0.1,0,0.2c0,0.1,0.1,0.1,0.3,0.2c0.1,0,0.2,0,0.3,0
	c0.1-0.1,0.2-0.1,0.2-0.2l0.5-1.4h2.7l0.4,1.4c0,0,0,0.1,0.1,0.1c0.1,0,0.2,0.1,0.3,0c0.2,0,0.2-0.1,0.3-0.2c0-0.1,0.1-0.1,0-0.2
	l-2.1-6c0-0.1-0.1-0.1-0.2-0.2C11.6,78.6,11.5,78.6,11.3,78.6 M12.5,83h-2.4l1.2-3.8L12.5,83z M10.8,82.5h1l-0.5-1.6L10.8,82.5z"/>
<path fill="#5C2483" d="M17.8,85c0,0.1-0.1,0.2-0.2,0.3c-0.1,0.1-0.3,0.1-0.5,0.1c-0.2,0-0.3,0-0.5-0.1c-0.1-0.1-0.2-0.2-0.2-0.3
	L15.1,79c0-0.1,0-0.3,0.1-0.4c0.1-0.1,0.2-0.2,0.4-0.3c0.2,0,0.3,0,0.5,0c0.1,0.1,0.2,0.2,0.3,0.3l0.8,5l1.2-4.8
	c0.1-0.4,0.3-0.5,0.7-0.5c0.2,0,0.4,0,0.5,0.1c0.1,0.1,0.2,0.2,0.2,0.4l1.2,4.8l0.8-5c0-0.1,0.1-0.2,0.3-0.3c0.1-0.1,0.3-0.1,0.5,0
	c0.2,0,0.3,0.1,0.4,0.3C23,78.7,23,78.9,23,79L21.7,85c0,0.1-0.1,0.2-0.3,0.3c-0.1,0.1-0.3,0.1-0.5,0.1c-0.2,0-0.3,0-0.5-0.1
	c-0.1-0.1-0.2-0.2-0.2-0.3L19,80.5L17.8,85z"/>
<path fill="#5C2483" d="M21,85.8c-0.2,0-0.4-0.1-0.6-0.2c-0.2-0.1-0.3-0.3-0.3-0.5l-1-3.6l-1,3.6c-0.1,0.2-0.2,0.3-0.3,0.5
	c-0.3,0.2-0.9,0.2-1.2,0c-0.2-0.1-0.3-0.3-0.3-0.5L14.9,79c0-0.1,0-0.3,0.1-0.6c0.1-0.2,0.3-0.3,0.6-0.4c0.2-0.1,0.5,0,0.7,0.1
	c0.2,0.1,0.3,0.3,0.4,0.4l0.6,3.8l0.9-3.6c0.1-0.5,0.5-0.7,0.9-0.7c0.3,0,0.5,0.1,0.6,0.2c0.1,0.1,0.2,0.3,0.3,0.5l0.9,3.6l0.6-3.8
	c0.1-0.2,0.2-0.4,0.4-0.5c0.2-0.1,0.4-0.1,0.7-0.1c0.3,0.1,0.4,0.2,0.6,0.4c0.2,0.2,0.1,0.5,0.1,0.6l-1.3,6
	c-0.1,0.2-0.2,0.3-0.4,0.5C21.4,85.7,21.2,85.8,21,85.8 M19,79.6l1.5,5.4c0,0.1,0.1,0.1,0.1,0.2c0.2,0.1,0.4,0.1,0.6,0
	c0.1-0.1,0.1-0.1,0.2-0.2l1.3-6c0-0.1,0-0.1,0-0.2c-0.1-0.1-0.1-0.1-0.3-0.2c-0.1,0-0.2,0-0.3,0C22,78.7,22,78.7,22,78.7l-1,6.1
	l-1.5-6c0-0.1-0.1-0.2-0.2-0.3c0,0-0.1-0.1-0.3-0.1c-0.2,0-0.3,0-0.4,0.4l-1.5,5.9l-1-6.1c0,0,0-0.1-0.1-0.1c-0.1,0-0.2,0-0.3,0
	c-0.1,0-0.2,0.1-0.3,0.2c-0.1,0.1-0.1,0.2,0,0.2l1.3,6.1c0,0,0,0.1,0.1,0.2c0.2,0.1,0.5,0.1,0.6,0c0.1-0.1,0.1-0.1,0.1-0.2L19,79.6z
	"/>
<path fill="#5C2483" d="M29.6,84.8c0,0.1,0,0.3-0.1,0.4c-0.1,0.1-0.2,0.2-0.4,0.3c-0.2,0-0.3,0-0.5,0c-0.1-0.1-0.2-0.2-0.3-0.3
	l-0.4-1.3h-2.4l-0.4,1.3c0,0.1-0.1,0.2-0.3,0.3c-0.1,0.1-0.3,0.1-0.5,0c-0.2-0.1-0.3-0.1-0.4-0.3c-0.1-0.1-0.1-0.3-0.1-0.4l2.1-6
	c0-0.1,0.1-0.2,0.2-0.3c0.1-0.1,0.3-0.1,0.5-0.1c0.2,0,0.3,0,0.5,0.1c0.1,0.1,0.2,0.2,0.3,0.3L29.6,84.8z M25.9,82.8h1.7l-0.8-2.7
	L25.9,82.8z"/>
<path fill="#5C2483" d="M24.6,85.7c-0.1,0-0.2,0-0.2,0c-0.3-0.1-0.5-0.2-0.6-0.4c-0.2-0.2-0.1-0.5-0.1-0.6l2.1-6.1
	c0.1-0.2,0.2-0.3,0.3-0.4c0.3-0.2,0.9-0.2,1.2,0c0.2,0.1,0.3,0.3,0.3,0.5l2.1,6c0.1,0.2,0,0.4-0.1,0.6c-0.1,0.2-0.3,0.3-0.6,0.4
	c-0.2,0.1-0.5,0-0.7-0.1c-0.3-0.1-0.4-0.3-0.4-0.4l-0.3-1.1h-2l-0.3,1.1c-0.1,0.2-0.2,0.3-0.4,0.4C24.9,85.7,24.7,85.7,24.6,85.7
	 M26.8,78.6c-0.1,0-0.2,0-0.3,0.1c-0.1,0.1-0.1,0.1-0.2,0.2l-2.1,6.1c0,0,0,0.1,0,0.2c0,0.1,0.1,0.1,0.3,0.2c0.1,0,0.2,0,0.3,0
	c0.1,0,0.1-0.1,0.2-0.2l0.5-1.4h2.7l0.4,1.4c0,0,0,0.1,0.1,0.1c0.1,0,0.2,0.1,0.3,0c0.1,0,0.2-0.1,0.3-0.2c0-0.1,0.1-0.1,0-0.2
	l-2.1-6c0-0.1-0.1-0.1-0.2-0.2C27,78.6,26.9,78.6,26.8,78.6 M27.9,83h-2.4l1.2-3.8L27.9,83z M26.2,82.5h1l-0.5-1.6L26.2,82.5z"/>
<path fill="#5C2483" d="M31.3,78.9c0-0.1,0.1-0.3,0.2-0.4c0.1-0.1,0.3-0.2,0.5-0.2h1.5c0.5,0,0.9,0.1,1.2,0.2
	c0.3,0.1,0.6,0.2,0.8,0.4c0.2,0.2,0.4,0.4,0.5,0.7c0.1,0.3,0.1,0.5,0.1,0.9v0.1c0,0.4-0.1,0.7-0.3,1c-0.2,0.3-0.5,0.5-0.9,0.6
	l1.2,2.5c0.1,0.1,0.1,0.2,0,0.4c-0.1,0.1-0.2,0.3-0.3,0.4c-0.2,0.1-0.3,0.1-0.5,0.1c-0.2,0-0.3-0.1-0.3-0.2l-1.2-2.6
	c-0.1,0-0.1,0-0.2,0h-0.2h-0.9V85c0,0.1-0.1,0.2-0.2,0.3c-0.1,0.1-0.3,0.1-0.5,0.1c-0.2,0-0.4-0.1-0.5-0.2c-0.1-0.1-0.2-0.2-0.2-0.4
	V78.9z M32.6,79.5v2.1h0.9c0.5,0,0.8-0.1,1.1-0.3c0.2-0.2,0.3-0.4,0.3-0.6v-0.2c0-0.3-0.1-0.6-0.3-0.7c-0.2-0.2-0.6-0.3-1.1-0.3
	H32.6z"/>
<path fill="#5C2483" d="M35.6,85.8c-0.1,0-0.1,0-0.2,0c-0.2-0.1-0.4-0.2-0.5-0.3l-1.2-2.5h0h-0.9V85c0,0.2-0.1,0.4-0.3,0.5
	c-0.3,0.3-0.9,0.3-1.3,0c-0.2-0.2-0.3-0.4-0.3-0.5v-6c0-0.2,0.1-0.4,0.3-0.5c0.2-0.1,0.4-0.2,0.6-0.2h1.5c0.5,0,1,0.1,1.3,0.2
	c0.4,0.1,0.7,0.3,0.9,0.5c0.2,0.2,0.4,0.5,0.5,0.8c0.1,0.3,0.2,0.6,0.2,1v0.1c0,0.4-0.1,0.8-0.3,1.1c-0.2,0.3-0.4,0.5-0.8,0.6
	l1.1,2.2c0.1,0.1,0.2,0.3,0,0.6c-0.1,0.2-0.2,0.4-0.4,0.5C35.9,85.7,35.7,85.8,35.6,85.8 M35.3,85.2c0,0,0,0.1,0.2,0.1
	c0.1,0,0.2,0,0.3,0c0.1-0.1,0.2-0.1,0.2-0.2c0-0.1,0-0.1,0-0.1l-1.4-2.8l0.3-0.1c0.4-0.1,0.6-0.3,0.8-0.5c0.1-0.2,0.2-0.5,0.2-0.8
	v-0.1c0-0.3,0-0.6-0.1-0.8c-0.1-0.2-0.2-0.4-0.4-0.6c-0.2-0.2-0.4-0.3-0.7-0.4c-0.3-0.1-0.7-0.1-1.2-0.1H32c-0.2,0-0.3,0.1-0.3,0.1
	c-0.1,0.1-0.1,0.1-0.1,0.2v6c0,0.1,0,0.1,0.1,0.2c0,0,0.1,0.1,0.3,0.1c0.1,0,0.2,0,0.3-0.1c0.1-0.1,0.1-0.1,0.1-0.2v-2.6h1.4
	c0.1,0,0.1,0,0.1,0l0.2,0L35.3,85.2L35.3,85.2z M33.5,81.9h-1.2v-2.6h1.2c0.6,0,1,0.1,1.2,0.3c0.3,0.2,0.4,0.5,0.4,0.9v0.2
	c0,0.3-0.1,0.6-0.4,0.8C34.5,81.8,34.1,81.9,33.5,81.9 M32.8,81.4h0.7c0.4,0,0.7-0.1,0.9-0.2c0.2-0.1,0.2-0.3,0.2-0.4v-0.2
	c0-0.2-0.1-0.4-0.2-0.5c-0.2-0.1-0.5-0.2-0.9-0.2h-0.7V81.4z"/>
<path fill="#5C2483" d="M38,78.9c0-0.1,0.1-0.3,0.2-0.4c0.1-0.1,0.3-0.2,0.5-0.2h1.4c0.5,0,0.9,0.1,1.3,0.2c0.4,0.2,0.7,0.4,0.9,0.6
	c0.2,0.3,0.4,0.6,0.5,0.9c0.1,0.4,0.2,0.7,0.2,1.2v1.2c0,0.4-0.1,0.8-0.2,1.1c-0.1,0.3-0.3,0.6-0.5,0.9c-0.2,0.3-0.5,0.5-0.9,0.6
	c-0.4,0.1-0.8,0.2-1.3,0.2h-1.4c-0.2,0-0.4,0-0.5-0.2C38.1,85.1,38,85,38,84.9V78.9z M39.3,79.6v4.7h0.8c0.5,0,0.9-0.1,1.2-0.4
	c0.3-0.3,0.4-0.6,0.4-1.1v-1.4c0-0.5-0.1-0.9-0.4-1.2c-0.3-0.3-0.7-0.4-1.2-0.4H39.3z"/>
<path fill="#5C2483" d="M40.1,85.6h-1.4c-0.3,0-0.5-0.1-0.7-0.2c-0.2-0.1-0.3-0.3-0.3-0.5v-6c0-0.2,0.1-0.4,0.3-0.5
	c0.2-0.1,0.4-0.2,0.6-0.2h1.4c0.5,0,1,0.1,1.4,0.3c0.4,0.2,0.7,0.4,1,0.7c0.3,0.3,0.5,0.6,0.6,1c0.1,0.4,0.2,0.8,0.2,1.2v1.2
	c0,0.4-0.1,0.8-0.2,1.2c-0.1,0.4-0.3,0.7-0.6,1c-0.3,0.3-0.6,0.5-1,0.7C41.1,85.6,40.6,85.6,40.1,85.6 M38.7,78.7
	c-0.1,0-0.2,0-0.3,0.1c-0.1,0.1-0.1,0.1-0.1,0.2v6c0,0,0,0.1,0.1,0.2c0.1,0.1,0.2,0.1,0.3,0.1h1.4c0.5,0,0.9-0.1,1.2-0.2
	c0.3-0.1,0.6-0.3,0.8-0.5c0.2-0.2,0.4-0.5,0.5-0.8c0.1-0.3,0.2-0.7,0.2-1v-1.2c0-0.4-0.1-0.7-0.2-1.1c-0.1-0.3-0.3-0.6-0.5-0.8
	c-0.2-0.2-0.5-0.4-0.8-0.6c-0.3-0.1-0.7-0.2-1.2-0.2H38.7z M40.1,84.5h-1v-5.2h1c0.6,0,1,0.2,1.4,0.5c0.3,0.3,0.5,0.8,0.5,1.4v1.4
	c0,0.6-0.2,1-0.5,1.3C41.1,84.3,40.7,84.5,40.1,84.5 M39.6,84h0.5c0.4,0,0.8-0.1,1-0.3c0.2-0.2,0.3-0.5,0.3-1v-1.4
	c0-0.5-0.1-0.8-0.4-1.1c-0.2-0.3-0.6-0.4-1-0.4h-0.5V84z"/>
<path fill="#5C2483" d="M47.1,85.5c-0.1,0-0.2,0-0.4,0c-0.2,0-0.3-0.1-0.5-0.1c-0.2-0.1-0.3-0.1-0.5-0.2c-0.2-0.1-0.3-0.2-0.5-0.3
	c-0.1-0.1-0.3-0.2-0.3-0.3c-0.1-0.1-0.1-0.3-0.1-0.4c0-0.3,0.2-0.5,0.6-0.5c0.1,0,0.2,0,0.3,0.1c0.1,0.1,0.2,0.1,0.3,0.2
	c0.1,0.1,0.3,0.2,0.5,0.3c0.2,0.1,0.5,0.1,0.7,0.1c0.3,0,0.5-0.1,0.7-0.2c0.2-0.1,0.3-0.3,0.3-0.6c0-0.2-0.1-0.4-0.2-0.6
	c-0.2-0.1-0.4-0.3-0.6-0.4c-0.2-0.1-0.5-0.2-0.8-0.3c-0.3-0.1-0.5-0.2-0.8-0.4c-0.2-0.2-0.4-0.4-0.6-0.6c-0.2-0.2-0.2-0.6-0.2-0.9
	c0-0.3,0-0.6,0.2-0.8c0.1-0.2,0.2-0.5,0.4-0.6c0.2-0.2,0.4-0.3,0.7-0.4c0.3-0.1,0.6-0.1,0.9-0.1c0.4,0,0.7,0,1,0.1
	c0.3,0.1,0.5,0.2,0.7,0.3c0.2,0.1,0.3,0.3,0.4,0.4c0.1,0.1,0.1,0.3,0.1,0.4c0,0.2,0,0.3-0.1,0.4c-0.1,0.1-0.2,0.2-0.4,0.2
	c-0.1,0-0.2,0-0.3-0.1c-0.1-0.1-0.2-0.1-0.3-0.2c-0.1-0.1-0.2-0.2-0.4-0.2c-0.2-0.1-0.4-0.1-0.7-0.1c-0.3,0-0.5,0.1-0.6,0.2
	c-0.2,0.1-0.3,0.3-0.3,0.6c0,0.2,0.1,0.4,0.2,0.6c0.2,0.1,0.4,0.3,0.6,0.4c0.2,0.1,0.5,0.2,0.8,0.3c0.3,0.1,0.5,0.2,0.8,0.4
	c0.2,0.2,0.4,0.4,0.6,0.6c0.2,0.2,0.2,0.6,0.2,1c0,0.6-0.2,1.1-0.6,1.4C48.4,85.3,47.8,85.5,47.1,85.5"/>
<path fill="#5C2483" d="M47.1,85.8c-0.1,0-0.3,0-0.4,0c-0.2,0-0.3-0.1-0.5-0.1c-0.2-0.1-0.4-0.1-0.5-0.2c-0.2-0.1-0.4-0.2-0.5-0.3
	c-0.2-0.1-0.3-0.2-0.4-0.4c-0.1-0.2-0.2-0.4-0.2-0.6c0-0.5,0.3-0.8,0.8-0.8c0.2,0,0.3,0.1,0.5,0.1c0.1,0.1,0.2,0.1,0.3,0.2
	c0.1,0.1,0.3,0.2,0.5,0.3c0.4,0.2,0.9,0.2,1.2,0c0,0,0.2-0.1,0.2-0.4c0-0.2-0.1-0.3-0.2-0.4c-0.1-0.1-0.3-0.2-0.5-0.4
	c-0.2-0.1-0.5-0.2-0.8-0.3c-0.3-0.1-0.6-0.3-0.8-0.4c-0.3-0.2-0.5-0.4-0.7-0.7c-0.2-0.3-0.3-0.6-0.3-1.1c0-0.3,0.1-0.6,0.2-0.9
	c0.1-0.3,0.3-0.5,0.5-0.7c0.2-0.2,0.5-0.4,0.8-0.5c0.6-0.2,1.5-0.2,2.1,0c0.3,0.1,0.5,0.2,0.8,0.4c0.2,0.2,0.4,0.3,0.5,0.5
	c0.1,0.2,0.2,0.4,0.2,0.5c0,0.2-0.1,0.4-0.2,0.6c-0.1,0.2-0.3,0.3-0.6,0.3c-0.2,0-0.3,0-0.4-0.1c-0.1-0.1-0.2-0.1-0.3-0.2
	c-0.1-0.1-0.2-0.1-0.4-0.2c-0.1-0.1-0.4-0.1-0.6-0.1c-0.2,0-0.4,0-0.5,0.2c-0.1,0.1-0.2,0.2-0.2,0.4c0,0.2,0,0.3,0.1,0.4
	c0.1,0.1,0.3,0.2,0.5,0.3c0.2,0.1,0.5,0.2,0.8,0.3c0.3,0.1,0.6,0.3,0.8,0.4c0.3,0.2,0.5,0.4,0.7,0.7c0.2,0.3,0.3,0.7,0.3,1.1
	c0,0.7-0.2,1.2-0.7,1.6C48.5,85.6,47.9,85.8,47.1,85.8 M45.3,83.9C45,83.9,45,84,45,84.2c0,0.1,0,0.2,0.1,0.3
	c0.1,0.1,0.2,0.2,0.3,0.3c0.1,0.1,0.3,0.2,0.4,0.2c0.2,0.1,0.3,0.1,0.5,0.2c0.2,0,0.3,0.1,0.5,0.1c0.1,0,0.3,0,0.4,0
	c0.6,0,1.1-0.2,1.5-0.5c0.3-0.3,0.5-0.7,0.5-1.3c0-0.3-0.1-0.6-0.2-0.8c-0.1-0.2-0.3-0.4-0.5-0.5c-0.2-0.2-0.5-0.3-0.7-0.4
	c-0.3-0.1-0.5-0.2-0.8-0.3c-0.3-0.1-0.5-0.3-0.7-0.4c-0.2-0.2-0.3-0.4-0.3-0.7c0-0.4,0.2-0.7,0.3-0.8c0.2-0.2,0.5-0.3,0.8-0.3
	c0.4,0,0.6,0.1,0.8,0.2c0.2,0.1,0.3,0.2,0.4,0.3c0.1,0.1,0.1,0.1,0.2,0.1c0,0,0.1,0,0.2,0c0.1,0,0.2,0,0.2-0.1
	c0-0.1,0.1-0.1,0.1-0.3c0,0,0-0.1-0.1-0.2c-0.1-0.1-0.2-0.2-0.4-0.3c-0.2-0.1-0.4-0.2-0.6-0.3c-0.5-0.2-1.2-0.2-1.7,0
	c-0.2,0.1-0.4,0.2-0.6,0.4c-0.2,0.2-0.3,0.3-0.4,0.6c-0.1,0.2-0.1,0.5-0.1,0.7c0,0.3,0.1,0.6,0.2,0.8c0.1,0.2,0.3,0.4,0.5,0.5
	c0.2,0.2,0.5,0.3,0.7,0.4c0.3,0.1,0.5,0.2,0.8,0.3c0.3,0.1,0.5,0.3,0.7,0.4c0.2,0.2,0.3,0.5,0.3,0.8c0,0.4-0.1,0.6-0.4,0.8
	c-0.4,0.3-1.1,0.3-1.7,0.1c-0.3-0.1-0.5-0.2-0.6-0.4c-0.1-0.1-0.1-0.1-0.2-0.2C45.5,83.9,45.4,83.9,45.3,83.9"/>
<polygon fill="#5C2483" points="36.2,35.7 36.2,35.7 18.3,17.8 36.2,0 18.3,0 0.4,17.8 9.3,26.8 18.3,35.7 27.3,44.6 "/>
<polygon fill="#5C2483" points="48.9,26.8 40,17.9 31,9 22.2,17.9 40,35.7 40,35.7 40,35.7 22.1,53.6 40,53.6 48.9,44.7 57.9,35.8 
	"/>
</svg>
