<?xml version="1.0" encoding="utf-8"?>
<!-- Generator: Adobe Illustrator 18.1.1, SVG Export Plug-In . SVG Version: 6.00 Build 0)  -->
<!DOCTYPE svg PUBLIC "-//W3C//DTD SVG 1.1//EN" "http://www.w3.org/Graphics/SVG/1.1/DTD/svg11.dtd">
<svg version="1.1" id="Layer_1" xmlns="http://www.w3.org/2000/svg" xmlns:xlink="http://www.w3.org/1999/xlink" x="0px" y="0px"
	 viewBox="132.1 -26 259.2 73.2" enable-background="new 132.1 -26 259.2 73.2" xml:space="preserve">
<g>
	<path fill="#F8CD2F" d="M132.1,2l42.8,18.1v-8.9L132.1-6.9C132.1-4.2,132.1-0.8,132.1,2z"/>
	<path fill="#EFDCA9" d="M133.9-8.7l10.5,4.4l30.5-12.9c0-2.8,0-6.2,0-8.9L133.9-8.7z"/>
	<path fill="#EFDCA9" d="M157.9,1.5l17.1-7.1c0-2.8,0-6.2,0-8.9L147.3-3L157.9,1.5z"/>
	<path fill="#8E401F" d="M142.4,38.3c0,3.2,0,5.8,0,9l30.6-13.9L162.7,29L142.4,38.3z"/>
	<path fill="#8E401F" d="M142.4,26.7c0,2.7,0,6.2,0,9l17.4-7.9l-10.2-4.3L142.4,26.7z"/>
	<path fill="#F8CD2F" d="M138.1,16l36.8,15.6v-8.9L138.1,7.1C138.1,9.8,138.1,13.2,138.1,16z"/>
</g>
<g>
	<path fill="#1C1C1C" d="M200.9-3.8c3.8,0,9.9,1.6,9.9,5.6v2.2h-2.5V2.6c0-2.5-4.3-3.8-7.4-3.8c-5.9,0-10.4,4.6-10.4,11
		c0,6.3,4.5,11.4,10.5,11.4c5.5,0,8.7-3.7,8.7-3.7l1.5,1.9c0,0-3.7,4.3-10.2,4.3c-7.8,0-13.2-6.2-13.2-13.9
		C187.8,2.1,193.4-3.8,200.9-3.8z"/>
	<path fill="#1C1C1C" d="M214.6,18c0,0,2.7,3.2,6.9,3.2c2.9,0,5.2-1.9,5.2-4.7c0-6.6-13.1-5.2-13.1-13.5c0-3.7,3.2-6.8,8.1-6.8
		c2.6,0,7.2,1.1,7.2,4.6v1.9h-2.5V1.5c0-1.6-2.2-2.8-4.6-2.8c-3.4,0-5.4,2-5.4,4.3c0,6.1,13.1,4.6,13.1,13.4c0,4-3.1,7.3-8,7.3
		c-5.4,0-8.4-3.8-8.4-3.8L214.6,18z"/>
	<path fill="#1C1C1C" d="M233.1,18c0,0,2.7,3.2,6.9,3.2c2.9,0,5.2-1.9,5.2-4.7c0-6.6-13.1-5.2-13.1-13.5c0-3.7,3.2-6.8,8.1-6.8
		c2.6,0,7.2,1.1,7.2,4.6v1.9h-2.5V1.5c0-1.6-2.2-2.8-4.6-2.8c-3.4,0-5.4,2-5.4,4.3c0,6.1,13.1,4.6,13.1,13.4c0,4-3.1,7.3-8,7.3
		c-5.4,0-8.4-3.8-8.4-3.8L233.1,18z"/>
	<path fill="#1C1C1C" d="M251.2-0.1C251-0.8,250.5-1,249.8-1h-0.5v-2.3h1.2c1.9,0,2.8,0.3,3.2,2.2l4.6,18.3c0.3,1.4,0.6,2.8,0.6,2.8
		h0.1c0,0,0.3-1.5,0.7-2.8l5.8-20.4h2.6l5.3,20.4c0.4,1.4,0.6,2.8,0.6,2.8h0.1c0,0,0.3-1.5,0.6-2.8l4.6-18.3
		c0.5-1.9,1.3-2.2,3.2-2.2h1.2V-1h-0.4c-0.8,0-1.2,0.1-1.4,0.8l-6.1,23.4h-3.1l-4.9-18.5c-0.5-1.7-0.9-3.9-0.9-3.9h-0.1
		c0,0-0.5,2.2-0.9,3.9l-5.4,18.5h-3.1L251.2-0.1z"/>
	<path fill="#1C1C1C" d="M285.1,20.9h2.5V-1h-2.5v-2.3h7.6V-1h-2.5v21.8h2.5v2.3h-7.6V20.9z"/>
	<path fill="#1C1C1C" d="M295,20.9h1.6c0.5,0,0.8-0.3,0.8-0.8V-3.3h2.4l13.5,18.9c0.9,1.3,2.1,3.5,2.1,3.5h0.1c0,0-0.2-2.1-0.2-3.5
		V-1c0-1.6,0.7-2.3,2.3-2.3h2.8V-1h-1.6c-0.5,0-0.8,0.3-0.8,0.8v23.4h-2.4L302.1,4.3c-0.9-1.3-2.2-3.4-2.2-3.4h-0.1
		c0,0,0.2,2,0.2,3.4v16.6c0,1.6-0.7,2.3-2.3,2.3H295L295,20.9L295,20.9z"/>
	<path fill="#1C1C1C" d="M322.7,20.9h1.6c0.5,0,0.8-0.3,0.8-0.8V-3.3h2.4l13.5,18.9c0.9,1.3,2.2,3.5,2.2,3.5h0.1
		c0,0-0.2-2.1-0.2-3.5V-1c0-1.6,0.7-2.3,2.3-2.3h2.8V-1h-1.6c-0.5,0-0.8,0.3-0.8,0.8v23.4h-2.4L329.8,4.3c-0.9-1.3-2.2-3.4-2.2-3.4
		h-0.1c0,0,0.2,2,0.2,3.4v16.6c0,1.6-0.7,2.3-2.3,2.3h-2.8V20.9L322.7,20.9z"/>
	<path fill="#1C1C1C" d="M352.8-1h-2.5v-2.3h15.2c1.6,0,2.3,0.7,2.3,2.3v2.6h-2.5v-1.8c0-0.6-0.3-0.8-0.8-0.8h-9.1v9.7h10V11h-10v9
		c0,0.6,0.3,0.8,0.8,0.8h9.3c0.5,0,0.8-0.3,0.8-0.8v-1.8h2.5v2.6c0,1.6-0.7,2.3-2.3,2.3h-11.5c-1.6,0-2.3-0.7-2.3-2.3L352.8-1
		L352.8-1z"/>
	<path fill="#1C1C1C" d="M372.9-1h-2.5v-2.3h11.2c4.5,0,7.6,2.9,7.6,7.5c0,4.1-2.5,6.5-5.1,7.1v0.1c0,0,0.5,0.3,0.9,1.1l3.8,7.5
		c0.4,0.8,0.9,0.9,1.9,0.9h0.5v2.3h-1.2c-2.1,0-2.8-0.3-3.7-2l-3.8-7.6c-0.7-1.4-1.2-1.6-2.7-1.6h-4.5v11.2h-2.6L372.9-1L372.9-1z
		 M381.4,9.7c3.2,0,5.1-2.1,5.1-5.4c0-3.3-2-5.3-5.1-5.3h-5.9V9.7H381.4z"/>
</g>
</svg>
